<svg width="500" height="500" viewBox="0 0 500 500" fill="none" xmlns="http://www.w3.org/2000/svg">
<rect width="500" height="500" rx="45" fill="#004800"/>
<path fill-rule="evenodd" clip-rule="evenodd" d="M29.6645 48.2311C24.1912 48.9694 20.3527 54.0048 21.0909 59.4781L67.6083 404.355C68.3465 409.828 73.382 413.667 78.8553 412.929L294.899 383.788C300.372 383.05 304.211 378.015 303.472 372.541L256.955 27.6645C256.217 22.1912 251.181 18.3527 245.708 19.0909L29.6645 48.2311ZM153.044 126.524C163.029 140.987 177.354 159.482 214.454 179.995C277.709 214.972 231.633 281.915 179.625 255.503C185.473 275.455 198.054 288.879 209.662 293.824L210.549 300.399L177.099 304.91L143.649 309.42L142.762 302.845C152.644 295.001 161.222 278.725 161.575 257.937C118.421 297.181 56.2595 244.835 107.991 194.352C138.332 164.744 147.246 143.115 153.043 126.524L153.043 126.524C153.044 126.524 153.044 126.524 153.044 126.524Z" fill="black"/>
<path d="M241.617 69.9619C242.913 64.5932 248.315 61.2916 253.684 62.5876L410.074 100.338C415.442 101.634 418.744 107.037 417.448 112.405L332.236 465.417C330.94 470.786 325.537 474.087 320.168 472.792L163.779 435.041C158.41 433.745 155.109 428.343 156.404 422.974L241.617 69.9619Z" fill="#004800"/>
<path fill-rule="evenodd" clip-rule="evenodd" d="M258.825 71.1007C253.457 69.8048 248.054 73.1064 246.758 78.4751L165.101 416.759C163.805 422.128 167.106 427.53 172.475 428.826L384.389 479.979C389.757 481.275 395.16 477.974 396.456 472.605L478.113 134.321C479.409 128.952 476.107 123.55 470.739 122.254L258.825 71.1007ZM265.117 254.488C291.721 231.268 318.293 206.82 342.96 180.692C352.197 214.394 364.24 248.772 378.57 281.872C350.304 303.774 324.91 328.811 300.726 355.667C291.94 321.464 279.135 287.512 265.117 254.488Z" fill="black"/>
</svg>
